<svg width="103" height="28" viewBox="0 0 103 28" fill="none" xmlns="http://www.w3.org/2000/svg">
<path d="M21.1306 2.5905V5.8385H13.9066V10.1505H20.5146V13.3705H13.9066V20.2305H9.65059V2.5905H21.1306ZM37.1838 13.4265C37.1838 14.5278 36.9971 15.5172 36.6238 16.3945C36.2691 17.2718 35.7744 18.0185 35.1398 18.6345C34.5051 19.2505 33.7584 19.7265 32.8998 20.0625C32.0411 20.3798 31.1171 20.5385 30.1278 20.5385C29.1384 20.5385 28.2144 20.3892 27.3558 20.0905C26.5158 19.7732 25.7878 19.3252 25.1718 18.7465C24.5558 18.1678 24.0704 17.4585 23.7158 16.6185C23.3611 15.7598 23.1838 14.7892 23.1838 13.7065C23.1838 12.5678 23.3611 11.5505 23.7158 10.6545C24.0891 9.7585 24.5931 9.0025 25.2278 8.3865C25.8624 7.7705 26.6091 7.30383 27.4678 6.9865C28.3264 6.6505 29.2504 6.4825 30.2398 6.4825C31.2291 6.4825 32.1438 6.63183 32.9838 6.9305C33.8424 7.22917 34.5798 7.67717 35.1958 8.2745C35.8118 8.85317 36.2971 9.57183 36.6518 10.4305C37.0064 11.2892 37.1838 12.2878 37.1838 13.4265ZM32.9278 13.5665C32.9278 12.8385 32.8531 12.2225 32.7038 11.7185C32.5544 11.1958 32.3491 10.7758 32.0878 10.4585C31.8264 10.1225 31.5278 9.87983 31.1918 9.7305C30.8558 9.58117 30.5104 9.5065 30.1558 9.5065C29.8011 9.5065 29.4558 9.57183 29.1198 9.7025C28.8024 9.83317 28.5131 10.0572 28.2518 10.3745C28.0091 10.6918 27.8131 11.1118 27.6638 11.6345C27.5144 12.1385 27.4398 12.7825 27.4398 13.5665C27.4398 14.9292 27.7198 15.9278 28.2798 16.5625C28.8398 17.1972 29.4838 17.5145 30.2118 17.5145C30.5664 17.5145 30.9024 17.4492 31.2198 17.3185C31.5558 17.1692 31.8451 16.9452 32.0878 16.6465C32.3491 16.3292 32.5544 15.9185 32.7038 15.4145C32.8531 14.9105 32.9278 14.2945 32.9278 13.5665ZM53.8832 13.4265C53.8832 14.5278 53.6965 15.5172 53.3232 16.3945C52.9685 17.2718 52.4738 18.0185 51.8392 18.6345C51.2045 19.2505 50.4578 19.7265 49.5992 20.0625C48.7405 20.3798 47.8165 20.5385 46.8272 20.5385C45.8378 20.5385 44.9138 20.3892 44.0552 20.0905C43.2152 19.7732 42.4872 19.3252 41.8712 18.7465C41.2552 18.1678 40.7698 17.4585 40.4152 16.6185C40.0605 15.7598 39.8832 14.7892 39.8832 13.7065C39.8832 12.5678 40.0605 11.5505 40.4152 10.6545C40.7885 9.7585 41.2925 9.0025 41.9272 8.3865C42.5618 7.7705 43.3085 7.30383 44.1672 6.9865C45.0258 6.6505 45.9498 6.4825 46.9392 6.4825C47.9285 6.4825 48.8432 6.63183 49.6832 6.9305C50.5418 7.22917 51.2792 7.67717 51.8952 8.2745C52.5112 8.85317 52.9965 9.57183 53.3512 10.4305C53.7058 11.2892 53.8832 12.2878 53.8832 13.4265ZM49.6272 13.5665C49.6272 12.8385 49.5525 12.2225 49.4032 11.7185C49.2538 11.1958 49.0485 10.7758 48.7872 10.4585C48.5258 10.1225 48.2272 9.87983 47.8912 9.7305C47.5552 9.58117 47.2098 9.5065 46.8552 9.5065C46.5005 9.5065 46.1552 9.57183 45.8192 9.7025C45.5018 9.83317 45.2125 10.0572 44.9512 10.3745C44.7085 10.6918 44.5125 11.1118 44.3632 11.6345C44.2138 12.1385 44.1392 12.7825 44.1392 13.5665C44.1392 14.9292 44.4192 15.9278 44.9792 16.5625C45.5392 17.1972 46.1832 17.5145 46.9112 17.5145C47.2658 17.5145 47.6018 17.4492 47.9192 17.3185C48.2552 17.1692 48.5445 16.9452 48.7872 16.6465C49.0485 16.3292 49.2538 15.9185 49.4032 15.4145C49.5525 14.9105 49.6272 14.2945 49.6272 13.5665ZM65.8505 0.210498H69.9945V20.2305H67.1385L66.7185 18.7745H66.5785C66.3172 19.1852 65.8599 19.5865 65.2065 19.9785C64.5719 20.3518 63.7319 20.5385 62.6865 20.5385C61.8092 20.5385 60.9972 20.3798 60.2505 20.0625C59.5039 19.7265 58.8599 19.2598 58.3185 18.6625C57.7772 18.0465 57.3479 17.3092 57.0305 16.4505C56.7319 15.5732 56.5825 14.5932 56.5825 13.5105C56.5825 12.4465 56.7225 11.4852 57.0025 10.6265C57.2825 9.74917 57.6839 9.01183 58.2065 8.4145C58.7479 7.7985 59.4105 7.3225 60.1945 6.9865C60.9785 6.6505 61.8652 6.4825 62.8545 6.4825C63.4705 6.4825 64.0492 6.57583 64.5905 6.7625C65.1505 6.9305 65.5705 7.14517 65.8505 7.4065V0.210498ZM65.8505 10.4305C65.6825 10.2065 65.4212 9.99183 65.0665 9.7865C64.7119 9.58117 64.3199 9.4785 63.8905 9.4785C63.4612 9.4785 63.0599 9.55317 62.6865 9.7025C62.3132 9.83317 61.9772 10.0572 61.6785 10.3745C61.3985 10.6918 61.1745 11.1025 61.0065 11.6065C60.8385 12.0918 60.7545 12.6985 60.7545 13.4265C60.7545 14.8265 61.0252 15.8625 61.5665 16.5345C62.1265 17.1878 62.8452 17.5145 63.7225 17.5145C64.2639 17.5145 64.7119 17.3745 65.0665 17.0945C65.4399 16.8145 65.7012 16.5158 65.8505 16.1985V10.4305ZM72.718 6.7905H77.254L79.466 12.7825L80.362 16.0585H80.474L81.314 12.7265L83.246 6.7905H87.474L82.63 20.4825C82.3686 21.2478 82.0606 21.9945 81.706 22.7225C81.3513 23.4505 80.9126 24.1318 80.39 24.7665C79.886 25.4012 79.27 25.9798 78.542 26.5025C77.814 27.0252 76.9366 27.4545 75.91 27.7905L74.202 24.5705C75.3033 24.1785 76.2086 23.6185 76.918 22.8905C77.646 22.1625 78.1313 21.3225 78.374 20.3705L78.43 20.1465L72.718 6.7905Z" fill="#F5F5F5"/>
<path d="M89.7431 18.0745C89.7431 17.3652 89.9764 16.7865 90.4431 16.3385C90.9284 15.8718 91.4977 15.6385 92.1511 15.6385C92.8044 15.6385 93.3644 15.8718 93.8311 16.3385C94.2977 16.7865 94.5311 17.3652 94.5311 18.0745C94.5311 18.8398 94.2977 19.4465 93.8311 19.8945C93.3644 20.3238 92.8044 20.5385 92.1511 20.5385C91.4977 20.5385 90.9284 20.3238 90.4431 19.8945C89.9764 19.4465 89.7431 18.8398 89.7431 18.0745Z" fill="#EAAB00"/>
</svg>